<?xml version="1.0" encoding="UTF-8"?>
<svg xmlns="http://www.w3.org/2000/svg" version="1.1" viewBox="0 0 1920 1080">
  <!-- Generator: Adobe Illustrator 29.0.0, SVG Export Plug-In . SVG Version: 2.1.0 Build 186)  -->
  <defs>
    <style>
      .st0, .st1, .st2 {
        fill: #fff;
      }

      .st1 {
        font-family: Quicksand-Medium, Quicksand;
        font-size: 144.34px;
        font-weight: 500;
      }

      .st2 {
        font-family: Quicksand-Bold, Quicksand;
        font-size: 437.62px;
        font-weight: 700;
      }
    </style>
  </defs>
  <g id="Capa_1">
    <g>
      <path class="st0" d="M692.04,406.51l5,5c.27.45.62,2.09,1,3l1,2c.19.53-.2,1.55,0,2,.7,1.6,8.26,1.69,10,0,.33-.03.67.04,1,0l3-1c.64-.09,1.36.09,2,0l3-1c.65-.08,1.35.08,2,0l4-1c1.31-.11,2.68.03,4,0,2.52-.07,6.32.82,8-1,2.33-.02,4.67-.02,7,0,1.67,1.79,5.49.97,8,1,1.66.02,3.35-.1,5,0l4,1c1.32.11,2.69-.13,4,0l4,1c1.31.14,2.69-.14,4,0l4,1c1.29.16,2.71-.16,4,0l4,1c1.29.16,2.72-.17,4,0l4,1c1.3.15,2.69-.14,4,0l2,2c-.28.11-.68-.1-1,0l-2,1c-.31.08-.68-.07-1,0-1.99.46-4.47.57-6,2-.26-.07-.72-.02-1,0l-2,1c-.62.11-1.4-.13-2,0l-3,1c-.32.06-.68-.07-1,0l-3,1c-.61.12-1.38-.11-2,0l-3,1c-.63.11-1.37-.11-2,0l-3,1c-.94.15-2.05-.13-3,0l-3,1c-1.3.16-2.69-.14-4,0l-4,1c-1.65.11-3.35-.02-5,0-2.19.03-5.63-.74-7,1-2.31.03-4.7.13-7,0l-4-1c-.99-.09-2.01.09-3,0l-4-1c-1.31-.12-2.69.13-4,0l-4-1c-1.32-.1-2.67.05-4,0-1.7-1.55-7.55-1.46-9.34-.84-.53.18-4.44,4.27-2.66,4.84.3.1.71-.11,1,0l3,2c.23.16.78-.16,1,0l5,5v17l1.49.99.51-.99c.58.03,1.56.12,2,0l7,5c.21.43-.2,1.5,0,2l1,2c.08.3-.06.67,0,1l1,2c.03.59.13,1.57,0,2l-3,3c-.3.35-.65.69-1,1l-3,3c-.27.13-.71-.12-1,0-3.4,1.42-4.78-.23-5,3-.06.95.19,2.22,0,3l-1,2c-.53,1.71-1.26,4.54-2,6l-2,2c-.15.24.16.79,0,1l-4,4c-2.95,1.26-10.76,1.48-14,1l-3-2c-.26-.14-.77.15-1,0l-7-7c-1.07-1.8-1.98-5.99-3-8l-1-2-1-1-3,1c-.64.09-1.38-.11-2,0l-3,1c-.62.11-1.38-.11-2,0l-3,1c-.62.11-1.37-.11-2,0l-3,1c-.63.11-1.37-.1-2,0-2.67.42-5.64.54-8,2-.6-.17-2.21-.06-3,0l-2,1c-.94.14-2.08-.16-3,0l-3,1c-.63.11-1.38-.11-2,0l-3,1c-.62.12-1.38-.12-2,0l-3,1c-.62.11-1.39-.12-2,0l-3,1c-.62.12-1.38-.12-2,0l-3,1c-.62.11-1.37-.11-2,0l-3,1c-.63.11-1.37-.1-2,0-2.67.42-5.64.54-8,2-.82-.13-2.1-.05-3,0-1.51.08-3.31,1.19-5,1.01l3,3.99c-.03.3-.07.81,0,1l2,2c.13.29-.14.75,0,1,.82,1.5,1.15,3.28,3,4,.13.28-.13.73,0,1,1.25,2.58,3.18,4.48,4,6,.98,1.82,1.91,4.8,3,7l3,6c.36.9.69,2.05,1,3,.48,1.46.32,3.07,2,4-.07.11-.03.71,0,1l1,2c.08.33-.09.71,0,1,.45,1.41.9,2.92,2,4-.09.18,0,.66,0,1-.01,1.54.81,3.88,2,5-.12.23-.05,1.5,0,2l1,2c.07.32-.08.69,0,1l1,2c.14.58-.14,1.41,0,2l1,2c.13.6-.13,1.4,0,2l1,3c.12.61-.12,1.39,0,2l1,2c.17.91-.16,2.07,0,3l1,3c.14.94-.13,2.04,0,3l1,4c.14,1.31-.11,2.69,0,4,.06,1.6-.62,4.15,1,5,.15,2.98-.07,6.01,0,9,.11,4.63.12,9.37,0,14-.08,2.97.22,6.04,0,9-1.62.85-.94,3.4-1,5-1.24,5.32-.52,6.04-8,5-2.57-2.02-5.19-3.03-7-6-.29-1.04.21-2.8,0-4l-1-4c-.19-1.25.18-2.74,0-4l-1-4c-.19-1.26.19-2.74,0-4l-1-4c-.15-.94.15-2.06,0-3l-1-4c-.15-.92.1-2.03,0-3l-1-3v-2l-1-3v-2l-1-3v-2l-1-2v-2l-1-2c-.08-.31.08-.69,0-1l-1-2c-.16-.56.16-1.45,0-2l-1-2c-.1-.3.1-.7,0-1l-1-2c-.1-.3.1-.7,0-1l-1-2c-.35-1-.62-1.99-1-3l-1-2c-.66-1.7-1.3-3.32-2-5-.75-1.8-.55-4.13-3-5-.38-.74-.43-1.95-1-3l-2-2c-.15-.24.15-.77,0-1-3.94-6.07-11.73-14.39-18-18-.25-.14-.73.14-1,0l-2-2h-1l-1.99-.99v1.99c-1.21,1.3-1.36,3.96-2.01,5-2.54,1.64-5.45,7.39-8.01,8.48-2.03.86-4.63-.16-5.99,1.52-.99.06-2.01-.07-3,0-3.46.26-4.48.07-8,1-.76.2-2.01-.31-2.92.06-.26.26-.18,2.31-.08,2.94l1,4c.16,1.27-.2,2.78,0,4,.77,4.6,4.36,2.73,8,3,.16.14-.14.71,0,1l1,2c.13.53-.05,1.35,0,2s-.06,1.34,0,2h15.01c1.79.19,3.39.81,5,1l3.49,3.01c-.01,16.19,1.75,34.44.55,50.57-.15,2.02-.52,2.73-1.04,4.43-.1.33.12.76,0,1l-2,2c-.23.15-.73-.14-1,0-1.1.56-2.29.84-3,2-.44-.16-1.36.06-2,0-6.03-1.85-13.6-.99-20-1-7.65,0-15.35,0-23,0-6.01-1.81-13.62-1.05-20-1-4.98.04-10.02-.12-15,0l-6-4c-.27-.6-.83-2.33-1-3l-1-3c-.4-3.63.02-8.2,0-12s.85-9.02-1-12c-.02-3.97-.18-8.04,0-12,.11-2.32-.49-4.75.52-6.98.25-.55,7.95-8.25,8.5-8.5,3.85-1.75,10.64.59,14.32-.68,2.43-.84,3.04-6.19,3.82-6.68,1.74-1.08,7.89,1.09,9.4-1.1.92-1.33.95-12.39-.56-13.06-.24-.11-.65.07-1,0l-4-1c-.92-.16-2.1.17-3,0l-4-1c-.58-.15-1.44.16-2,0l-2-1c-.93-.36-2.39-.68-3-1l-8-7c-.15-.23.14-.74,0-1-.95-1.69-1.35-3.74-3-5-.08-.29.06-.67,0-1-.12-.6.08-1.35,0-2l-1.99,2c-.35.02-.77-.09-1,0-2.27.84-13.89,13.3-16,16-.16.21.16.79,0,1-2.84,1.55-4.37,4.39-6,7-.15.24.15.76,0,1l-2,2c-.14.25.15.75,0,1-1.85.72-2.19,2.49-3,4-1.94,3.61-3.49,7.19-5,11l-1,2c-.11.29.1.7,0,1l-1,2c-.1.3.1.7,0,1l-1,2c-.09.31.08.69,0,1l-1,3c-.14.59.14,1.4,0,2l-1,2c-.13.6.12,1.39,0,2l-1,3c-.17.91.16,2.07,0,3l-1,3c-.15.94.15,2.06,0,3l-1,4c-.19,1.25.19,2.75,0,4l-1,4c-.18,1.26.18,2.74,0,4l-1,4c-.14.95.14,2.05,0,3l-1,4c-.15.93.17,2.09,0,3l-1,4c-.17.9.24,2.29,0,3l-6,5c-.28.1-.67-.08-1,0l-2,1c-1.74.2-4.19.09-6,0l-2-6c-.1-3.98-.02-8.02,0-12,1.86-2.99.97-8.21,1-12,.02-2.32-.13-4.69,0-7,1.62-.85.94-3.4,1-5,.1-1.32-.13-2.69,0-4l1-4c.16-1.28-.19-2.74,0-4l1-3c.1-.63-.11-1.37,0-2l1-3c.12-.61-.12-1.39,0-2l1-3c.14-.59-.14-1.41,0-2l1-2c.15-.58-.15-1.43,0-2l1-2c.09-.31-.09-.69,0-1l1-2c.09-.31-.09-.7,0-1l1-2c.7-2.25,1.19-4.82,2-7l1-2c.11-.29-.11-.71,0-1l1-2c.43-1.04.63-2.14,1-3l1-2c.97-2.22,2.01-4.93,3-7s2.82-4.57,4-7c.85-1.75,1.3-3.48,2-5,1.79-.75,2.27-2.45,3-4,.13-.27-.13-.73,0-1,1.85-.71,2.18-2.5,3-4,.14-.26-.14-.74,0-1l2-2c.14-.25-.14-.74,0-1l2-2c.13-.26-.13-.72,0-1l1.98-1.51-.98-.49h-1l-2-1c-.57-.15-1.4.13-2,0l-3-1c-.6-.14-1.4.13-2,0l-3-1c-.6-.13-1.4.13-2,0l-2-1c-.6-.13-1.4.13-2,0l-3-1c-.6-.13-1.4.13-2,0l-3-1c-.6-.13-1.4.13-2,0l-2-1c-.88-.19-2.12.19-3,0l-2-1c-.6-.13-1.4.13-2,0l-3-1c-.61-.13-1.39.13-2,0l-3-1c-.61-.12-1.39.12-2,0l-2-1c-.61-.12-1.39.12-2,0l-3-1c-.61-.12-1.39.12-2,0l-3-1c-.61-.12-1.39.12-2,0l-2-1c-.62-.12-1.38.11-2,0l-3-1c-.63-.1-1.36.08-2,0l-3-1c-.55-.05-1.6-.12-2,0l-7-2c-1.35-.07-.76,1.45-1,2l-1,2c-.03.3-.07.88,0,1-1.63,1.27-2.08,3.29-3,5-.14.26.15.77,0,1l-6,6c-.23.15-.74-.14-1,0-1.69.95-3.74,1.35-5,3-1.89.26-6.11.26-8,0-1.27-1.63-3.29-2.09-5-3-.26-.14-.76.15-1,0l-4-4c-.16-.2.16-.77,0-1l-2-2c-.13-.26.13-.72,0-1l-1-2c-.12-.28.12-.71,0-1l-1-2c-.19-.5.19-1.51,0-2-.68-1.73-8.22-6.97-10-9-1.42-3.27-1.42-8.72,0-12,2.4-2.11,5.16-3.59,8-5,.41-.21,1.83.6,2.05-.62.35-5.08-1.05-11.68.95-16.38l4-4c.25-.13.7.12,1,0l3-1c.49-.13,1.3.22,1.92-.06.19-.23.22-1.61.08-1.94l-2-2c-.09-.27.05-.65,0-1-.14-.94.12-2.03,0-3-2.73-.07-5.93-.05-8,2-.23-.11-1.5-.05-2,0l-2,1c-.32.07-.68-.07-1,0l-3,1c-.61.12-1.38-.11-2,0l-3,1c-.64.09-1.35-.07-2,0-1.6.06-4.15-.62-5,1-5.82.33-13.18.32-19,0l-4-1c-1.31-.11-2.7.15-4,0l-3-1c-.96-.13-2.04.14-3,0l-3-1c-.64-.1-1.37.1-2,0l-3-1c-.94-.15-2.07.15-3,0l-3-1c-.62-.11-1.38.11-2,0l-3-1c-.91-.17-2.09.17-3,0l-3-1c-.62-.12-1.38.12-2,0l-3-1c-.91-.17-2.09.17-3,0l-3-1c-.33-.08-.72.1-1,0l1-2c.29-.11.69.1,1,0l2-1c.57-.15,1.41.14,2,0l3-1c.61-.13,1.39.12,2,0l3-1c.91-.17,2.07.15,3,0l3-1c.96-.14,2.04.12,3,0l4-1c1.31-.14,2.69.12,4,0,1.6-.06,4.15.62,5-1,1.98-.11,4.01.01,6,0,2.5-.02,6.34.78,8-1,5.84-.05,12.24-.34,18,0l3,1c.99.09,2.01-.08,3,0l4,1c.98.09,2.02-.1,3,0l3,1c.99.08,2.01-.05,3,0,1.17,1.41,12.51,1.44,13.01,1,.14-.13-.04-2.23,0-3,.04-.97-.16-2.14,0-3l2-3c.68-.83.85-1.43,2-2,3.32-.14,6.45-.5,9,2,.16.2-.16.77,0,1l2,3c.13.26-.12.71,0,1l1,2c.12.29-.13.75,0,1,.85,1.63,10.14,1.65,12,0,.99-.06,2.02.09,3,0l2-1c.98-.12,2.02.11,3,0l2-1c.98-.1,2.02.11,3,0l2-1c1.97-.15,4.01.08,6,0,8.04-.33,16.93-.22,25,0,2.66.07,5.35-.13,8,0,.85,1.62,3.4.94,5,1,1.31.11,2.69-.14,4,0l4,1c.96.12,2.05-.14,3,0l3,1c.92.16,2.09-.17,3,0l3,1c.61.12,1.4-.13,2,0l3,1c.59.15,1.51-.18,2,0l2,2c-.53.17-1.44-.17-2,0l-2,1c-.58.15-1.42-.15-2,0l-2,1c-.58.15-1.41-.14-2,0l-2,1c-.6.13-1.39-.13-2,0l-3,1c-.61.13-1.39-.12-2,0l-3,1c-.61.12-1.38-.12-2,0-2.93.55-6.37,1.58-9,2-.63.1-1.37-.1-2,0l-4,1c-.95.14-2.04-.14-3,0l-4,1c-1.3.15-2.69-.12-4,0l-4,1c-1.65.1-3.34-.02-5,0-2.19.03-5.63-.74-7,1-1.64.02-3.37.13-5,0l-3-1c-.65-.08-1.35.08-2,0l-3-1c-.64-.09-1.37.1-2,0l-3-1c-.92-.16-2.07.16-3,0l-3-1c-.63-.11-1.37.1-2,0l-3-1c-.4-.08-1.9-.07-2,0l-1,2c-.12.22.09.66,0,1-8.78,3.94-.69,4.69,4,7,.28.14.78-.15,1,0l2,2c.08.28-.04.65,0,1,.37,3.09-1.04,15.23,1,16,.39.15,2.38.09,3,0,1.6-.06,4.15.62,5-1,1.31-.13,2.69.12,4,0l4-1c.65-.07,1.35.07,2,0,2.51-.27,5.07-.79,7-1,1.31-.14,2.7.15,4,0,1.6-.06,4.15.62,5-1,1.3-.15,2.7.15,4,0l4-1c.65-.07,1.35.07,2,0,2.36-.27,4.92-.76,7-1,1.3-.15,2.7.15,4,0,1.6-.06,4.15.62,5-1,1.3-.16,2.7.16,4,0l4-1c.65-.08,1.35.08,2,0,2.36-.29,4.88-.73,7-1,1.28-.17,2.72.16,4,0,1.6-.06,4.15.62,5-1,1.27-.17,2.74.18,4,0l4-1c.64-.09,1.36.09,2,0l2-1c.63-.11,1.37.11,2,0,2.31-.41,5.15-.31,7-2,.45.12,1.43.04,2,0l2-1c.62-.11,1.4.12,2,0l2-1c.62-.11,1.4.13,2,0l3-1c.32-.06.68.06,1,0,2.31-.41,5.15-.31,7-2,.45.12,1.43.05,2,0l2-1c.96-.12,2.02.09,3,0l3-1c1.6-.16,3.36.03,5,0,1.89-.04,4.91.69,6-1,5.31-.08,10.69-.07,16,0,1.09,1.68,4.11.97,6,1,1.64.03,3.38-.15,5,0l3,1c.95.13,2.06-.15,3,0l2,1c.62.12,1.39-.12,2,0l2,1c.32.07.68-.07,1,0l3,1c.6.13,1.39-.13,2,0l2,1c.6.13,1.4-.13,2,0l2,1c.6.13,1.4-.13,2,0l3,1c.61.13,1.4-.13,2,0l2,1c.61.13,1.39-.12,2,0l3,1c.61.12,1.39-.12,2,0l3,1h2l9,2h3l4,1c.95.14,2.04-.13,3,0l4,1c.96.13,2.04-.13,3,0,.85,1.62,3.4.94,5,1,1.29.16,2.71-.16,4,0l4,1c1.3.16,2.7-.15,4,0,.85,1.62,3.4.94,5,1,1.31.14,2.69-.14,4,0,.85,1.62,3.4.94,5,1,1.63.17,3.36-.17,5,0,.85,1.62,3.4.94,5,1,1.64.16,3.36-.16,5,0,.85,1.62,3.4.94,5,1,1.64.16,3.36-.17,5,0,.85,1.62,3.4.94,5,1,1.6.19,3.38-.12,5.01,0,.77-6.96-2.37-13.84,2.99-19.01l3-2c.22-.16.77.15,1,0,1.5.02,2.54-.55,3-2,.15-.19-.13-.7,0-1,2.68-5.94-7.14-4.59-11-3-.99.04-2.02-.1-3,0l-2,1c-.97.12-2.02-.11-3,0l-3,1c-.98.1-2.02-.1-3,0l-3,1c-5.41.35-11.5.04-17,0-1.66-1.78-5.5-.98-8-1-1.66-.01-3.35.09-5,0-.85-1.62-3.4-.94-5-1-1.31-.13-2.7.15-4,0l-3-1c-.95-.13-2.06.14-3,0l-3-1c-.93-.15-2.07.16-3,0l-3-1c-.63-.11-1.38.11-2,0l-2-1c-.62-.12-1.39.12-2,0l-3-1c-.62-.11-1.37.09-2,0l-2-1c-.28-.02-.74-.07-1,0-1.85-1.6-4.76,0-4-3,.55-.16,1.41.15,2,0l2-1c.58-.15,1.41.14,2,0l2-1c.59-.14,1.41.14,2,0l2-1c.59-.14,1.4.13,2,0l3-1c.61-.12,1.39.12,2,0l3-1c.62-.11,1.37.11,2,0l4-1c.95-.14,2.04.13,3,0l3-1c1.31-.14,2.69.12,4,0,1.6-.06,4.15.62,5-1,1.98-.12,4.01.02,6,0,3.15-.03,7.69.84,10-1,5.15-.03,10.96-.38,16,0l3,1c.64.1,1.42-.13,2,0l2,1c.31.09.71-.1,1,0l2,1c1,.41,2.26.64,3,1,1.5,2.22,2.76,3.14,5,3,.66-.04,1.43.12,2,0l2-1c.32-.15,1.28.29,1.78-.22s.09-1.34.22-1.78l1-3c.56-1.23,1.66-4.51,2-5,.12-.18,2.8-2.93,3-3,.42-.16,4.4-.15,5,0ZM511.78,571.75c-19.27,3.12-15.98,35.16,6.52,31.52,19.27-3.12,15.98-35.16-6.52-31.52Z"/>
      <path class="st0" d="M513.27,579.71c11.72-2.56,13.75,13.6,4.55,15.61-11.72,2.56-13.75-13.6-4.55-15.61Z"/>
    </g>
    <text class="st2" transform="translate(960 568.43) scale(1.15 1)"><tspan x="0" y="0">AIR</tspan></text>
    <text class="st1" transform="translate(953.73 763.02) scale(.78 1)"><tspan x="0" y="0">DRONEWORKS</tspan></text>
  </g>
  <g id="Capa_2">
    <path class="st0" d="M76.77,473.36c23.11-29.16,46.21-58.33,69.32-87.49-7.9-16.4-42.15-92.05-13.4-183.32,27.05-85.9,91.74-127.94,108.35-138.06-6.45,1.69-15.56,4.37-26.14,8.53,0,0,0,0,0,0-82.63,30.05-124.04,104.2-129.91,114.06-54.89,92.1-36.03,186.89-29.95,217.41,5.81,29.21,14.62,52.68,21.73,68.87Z"/>
    <path class="st0" d="M396.01,179.24c12.33,10.67,25.16,22.5,38.21,35.57,12.36,12.37,23.59,24.53,33.79,36.26-4.66,5.48-9.31,10.95-13.97,16.43-9.79,2.56-30.69,9.44-49.95,28.17-19.99,19.43-27.36,41.07-30.05,50.83-5.25-1.62-24.54-6.87-46.03,2.27-24.72,10.52-34.1,32.3-35.87,36.66-8.15-3.03-20.67-6.07-35.19-3.47-2.06.37-35.65,6.89-44.26,32.34-.83,2.45-3.97,11.74-1.02,22.47,1.62,5.9,4.46,9.99,8.17,15.32,4.96,7.14,7.44,10.71,11.57,12.26,4.12,1.55,8.68,1.14,10.21,4.26.54,1.09.5,2.19.42,2.9-.77.34-1.86.87-3.05,1.7-7.25,4.99-8.81,13.89-9.46,17.58-.6,3.43-1.16,6.82.1,11.01,1.11,3.69,3.1,6.26,4.42,7.71,69.83,86.97,139.67,173.93,209.5,260.9,25.89,22.11,47.88,40.42,64.5,54.1,26.41,21.75,32.08,25.92,41.84,30.66,13.29,6.45,40.76,17.43,75.57,14.33,10.76-.96,22.36-1.99,35.59-7.99,38.33-17.4,52.86-59.56,63-89,5.01-14.54,11.1-36.72,12.9-65.09,20.37-16.97,40.73-33.94,61.1-50.91-1.92,35.98-7,65.68-11.74,87.34-7.86,35.98-14.68,65.94-35.23,99.06-12.02,19.37-24.81,33.49-34.05,42.62-16.55,16.62-49.98,45.16-99.9,56.92-108.54,25.55-195.22-51.78-204.08-59.94-40.45-39.66-70.71-73.79-90.31-96.86-33.76-39.74-48.4-61.41-88.42-110.74-34.31-42.29-63.22-75.24-81.26-95.4-8.14,10.62-19.81,28.24-27.76,52.38-6.52,19.82-19.58,59.47-1.02,98.68,11.97,25.29,31.78,39.2,38.3,43.66,13.85,9.48,26.17,13.32,50,20.76,5.09,1.59,23.77,7.28,49.48,11.52,19.67,3.24,36.74,4.53,50,5,15,17.67,30,35.33,45,53-17.75-1.27-43.4-3.49-74.23-7.56-46.67-6.16-70.54-9.44-96.51-19.15-18.8-7.03-46.43-20.02-76.26-45.29-19.48-16.76-42.14-41.92-56.25-77.26-47.63-119.32,48.56-238.88,54.25-245.74,13.81-19.21,36.66-49.15,68.56-82.6,41.76-43.79,68.96-62.08,118.36-106.75,24.4-22.06,60.04-55.83,101.04-100.91Z"/>
    <path class="st0" d="M156.02,184.49c7.45-17.28,38.67-84.17,114.03-116.23,39.65-16.86,75.83-17.42,96.99-15.97,24.34,3.57,62.97,12.28,104.71,35.89,42.39,23.97,70.03,53.14,85.64,72.34,14.37,14.72,34.89,36.49,58.29,64.12,6.04,7.14,20.48,24.36,55.22,69.84,17.05,22.32,40.09,52.88,67.14,90.02-5.49-7.45-24.19-30.91-58.46-40.49-37.6-10.52-68.26,2.84-76.09,6.53-2.77-10.37-10.4-33.29-31.4-53.77-23.78-23.19-50.61-29.51-61.02-31.4-8.93-11.83-21.91-27.79-39.15-45.19-19.3-19.47-45.86-45.87-86.98-67.66-18.92-10.02-47.82-22.74-85.9-30.02-5.92.03-46.76.5-75.46,11.89-13.05,5.18-22.72,11.74-22.72,11.74-6.88,4.67-10.54,8.34-18.74,15.78-6,5.45-14.84,13.27-26.1,22.58Z"/>
    <path class="st0" d="M673.04,261.67l-58-74.18c32.46,4.91,71.39,13.86,113.56,30.38,22.06,8.64,41.82,18.11,59.23,27.57,9.45,6.87,33.36,26.17,46.2,61.05,12.34,33.49,7.54,62.5,5,74-2.21,7.64-5.21,16.2-9.33,25.29-5.91,13.04-12.59,23.79-18.7,32.26,3.81-9.95,10.87-32.54,5.42-60.35-3.54-18.09-11.03-31.52-16.44-39.58-10.79-12.63-26.45-28.27-47.95-42.62-30.4-20.31-59.55-29.44-79-33.82Z"/>
    <path class="st0" d="M487.11,778.86c10.18,10.05,23.7,21.66,40.93,32.63,14.65,9.33,28.51,15.99,40.35,20.76,95.55-87.59,191.1-175.18,286.65-262.76,12.86-14.8,35.72-45.1,47-90,12.47-49.65,4.16-90.83-1-110-4.63-11.98-11.33-26.26-21.12-41.32-13.23-20.35-27.68-35.3-39.38-45.66,5.64,10.32,12.4,25.56,15.89,44.98,2.35,13.06,2.61,24.64,2.13,33.87-2.9,17.84-8.86,42.14-21.87,68.6-17.15,34.87-39.19,58.55-54.47,72.53-98.37,92.12-196.74,184.25-295.11,276.37Z"/>
  </g>
</svg>